solid OpenSCAD_Model
  facet normal -1 0 0
    outer loop
      vertex -51 -10 -10
      vertex -51 -10 10
      vertex -51 10 -10
    endloop
  endfacet
  facet normal -1 0 0
    outer loop
      vertex -51 10 -10
      vertex -51 -10 10
      vertex -51 10 10
    endloop
  endfacet
  facet normal 0 -1 0
    outer loop
      vertex -51 -10 10
      vertex -51 -10 -10
      vertex -47 -10 -10
    endloop
  endfacet
  facet normal 0 -1 0
    outer loop
      vertex -47 -10 10
      vertex -51 -10 10
      vertex -47 -10 -10
    endloop
  endfacet
  facet normal 0 0 -1
    outer loop
      vertex -51 -10 -10
      vertex -51 10 -10
      vertex -47 -10 -10
    endloop
  endfacet
  facet normal 0 0 -1
    outer loop
      vertex -47 2 -10
      vertex -51 10 -10
      vertex -47 10 -10
    endloop
  endfacet
  facet normal 0 0 -1
    outer loop
      vertex -47 -10 -10
      vertex -51 10 -10
      vertex -47 -2 -10
    endloop
  endfacet
  facet normal 0 0 -1
    outer loop
      vertex -26.5 2 -10
      vertex -26.5 10 -10
      vertex -22.5 10 -10
    endloop
  endfacet
  facet normal 0 0 -1
    outer loop
      vertex -26.5 2 -10
      vertex -22.5 10 -10
      vertex -22.5 2 -10
    endloop
  endfacet
  facet normal 0 0 -1
    outer loop
      vertex -47 -2 -10
      vertex -22.5 2 -10
      vertex -26.5 -2 -10
    endloop
  endfacet
  facet normal 0 0 -1
    outer loop
      vertex -2 2 -10
      vertex -2 10 -10
      vertex 2 10 -10
    endloop
  endfacet
  facet normal 0 0 -1
    outer loop
      vertex -2 2 -10
      vertex 2 10 -10
      vertex 2 2 -10
    endloop
  endfacet
  facet normal 0 0 -1
    outer loop
      vertex -22.5 -10 -10
      vertex -26.5 -10 -10
      vertex -22.5 -2 -10
    endloop
  endfacet
  facet normal 0 0 -1
    outer loop
      vertex -22.5 -2 -10
      vertex -2 2 -10
      vertex 2 2 -10
    endloop
  endfacet
  facet normal 0 0 -1
    outer loop
      vertex 22.5 2 -10
      vertex 22.5 10 -10
      vertex 26.5 10 -10
    endloop
  endfacet
  facet normal 0 0 -1
    outer loop
      vertex 22.5 2 -10
      vertex 26.5 10 -10
      vertex 26.5 2 -10
    endloop
  endfacet
  facet normal 0 0 -1
    outer loop
      vertex -22.5 -2 -10
      vertex 2 2 -10
      vertex -2 -2 -10
    endloop
  endfacet
  facet normal 0 0 -1
    outer loop
      vertex 47 2 -10
      vertex 47 10 -10
      vertex 51 10 -10
    endloop
  endfacet
  facet normal 0 0 -1
    outer loop
      vertex 47 2 -10
      vertex 51 10 -10
      vertex 51 -10 -10
    endloop
  endfacet
  facet normal 0 0 -1
    outer loop
      vertex 47 -2 -10
      vertex 51 -10 -10
      vertex 47 -10 -10
    endloop
  endfacet
  facet normal 0 0 -1
    outer loop
      vertex 47 2 -10
      vertex 51 -10 -10
      vertex 47 -2 -10
    endloop
  endfacet
  facet normal 0 0 -1
    outer loop
      vertex 47 2 -10
      vertex 47 -2 -10
      vertex 26.5 -2 -10
    endloop
  endfacet
  facet normal 0 0 -1
    outer loop
      vertex 2 -2 -10
      vertex 47 2 -10
      vertex 22.5 -2 -10
    endloop
  endfacet
  facet normal 0 0 -1
    outer loop
      vertex 22.5 -2 -10
      vertex 26.5 -2 -10
      vertex 22.5 -10 -10
    endloop
  endfacet
  facet normal 0 0 -1
    outer loop
      vertex 47 2 -10
      vertex 26.5 -2 -10
      vertex 22.5 -2 -10
    endloop
  endfacet
  facet normal 0 0 -1
    outer loop
      vertex 26.5 2 -10
      vertex 47 2 -10
      vertex 2 -2 -10
    endloop
  endfacet
  facet normal 0 0 -1
    outer loop
      vertex 26.5 2 -10
      vertex 2 -2 -10
      vertex 22.5 2 -10
    endloop
  endfacet
  facet normal 0 0 -1
    outer loop
      vertex -26.5 -2 -10
      vertex -22.5 -2 -10
      vertex -26.5 -10 -10
    endloop
  endfacet
  facet normal 0 0 -1
    outer loop
      vertex 2 2 -10
      vertex 22.5 2 -10
      vertex -2 -2 -10
    endloop
  endfacet
  facet normal 0 0 -1
    outer loop
      vertex -22.5 2 -10
      vertex -2 2 -10
      vertex -22.5 -2 -10
    endloop
  endfacet
  facet normal 0 0 -1
    outer loop
      vertex -47 -2 -10
      vertex -26.5 2 -10
      vertex -22.5 2 -10
    endloop
  endfacet
  facet normal 0 0 -1
    outer loop
      vertex -2 -2 -10
      vertex 2 -2 -10
      vertex -2 -10 -10
    endloop
  endfacet
  facet normal 0 0 -1
    outer loop
      vertex -2 -2 -10
      vertex 22.5 2 -10
      vertex 2 -2 -10
    endloop
  endfacet
  facet normal 0 0 -1
    outer loop
      vertex -22.5 2 -10
      vertex -22.5 -2 -10
      vertex -26.5 -2 -10
    endloop
  endfacet
  facet normal 0 0 -1
    outer loop
      vertex -47 2 -10
      vertex -26.5 2 -10
      vertex -47 -2 -10
    endloop
  endfacet
  facet normal 0 0 -1
    outer loop
      vertex -47 2 -10
      vertex -47 -2 -10
      vertex -51 10 -10
    endloop
  endfacet
  facet normal 0 0 -1
    outer loop
      vertex 2 -10 -10
      vertex -2 -10 -10
      vertex 2 -2 -10
    endloop
  endfacet
  facet normal 0 0 -1
    outer loop
      vertex 26.5 -10 -10
      vertex 22.5 -10 -10
      vertex 26.5 -2 -10
    endloop
  endfacet
  facet normal 0 1 0
    outer loop
      vertex -51 10 -10
      vertex -51 10 10
      vertex -47 10 -10
    endloop
  endfacet
  facet normal 0 1 0
    outer loop
      vertex -47 10 -10
      vertex -51 10 10
      vertex -47 10 10
    endloop
  endfacet
  facet normal 0 0 1
    outer loop
      vertex -51 10 10
      vertex -51 -10 10
      vertex -47 -10 10
    endloop
  endfacet
  facet normal 0 0 1
    outer loop
      vertex -47 2 10
      vertex -51 10 10
      vertex -47 -2 10
    endloop
  endfacet
  facet normal 0 0 1
    outer loop
      vertex -47 -2 10
      vertex -51 10 10
      vertex -47 -10 10
    endloop
  endfacet
  facet normal 0 0 1
    outer loop
      vertex -47 2 10
      vertex -47 10 10
      vertex -51 10 10
    endloop
  endfacet
  facet normal 0 0 1
    outer loop
      vertex -22.5 -10 10
      vertex -26.5 -2 10
      vertex -26.5 -10 10
    endloop
  endfacet
  facet normal 0 0 1
    outer loop
      vertex -22.5 -2 10
      vertex -26.5 -2 10
      vertex -22.5 -10 10
    endloop
  endfacet
  facet normal 0 0 1
    outer loop
      vertex -26.5 2 10
      vertex -26.5 -2 10
      vertex -22.5 -2 10
    endloop
  endfacet
  facet normal 0 0 1
    outer loop
      vertex 2 -10 10
      vertex -2 -2 10
      vertex -2 -10 10
    endloop
  endfacet
  facet normal 0 0 1
    outer loop
      vertex 2 -2 10
      vertex -2 -2 10
      vertex 2 -10 10
    endloop
  endfacet
  facet normal 0 0 1
    outer loop
      vertex 22.5 -2 10
      vertex -2 2 10
      vertex 2 -2 10
    endloop
  endfacet
  facet normal 0 0 1
    outer loop
      vertex -26.5 2 10
      vertex -47 2 10
      vertex -26.5 -2 10
    endloop
  endfacet
  facet normal 0 0 1
    outer loop
      vertex 26.5 -10 10
      vertex 22.5 -2 10
      vertex 22.5 -10 10
    endloop
  endfacet
  facet normal 0 0 1
    outer loop
      vertex 26.5 -2 10
      vertex 22.5 -2 10
      vertex 26.5 -10 10
    endloop
  endfacet
  facet normal 0 0 1
    outer loop
      vertex -2 2 10
      vertex -2 -2 10
      vertex 2 -2 10
    endloop
  endfacet
  facet normal 0 0 1
    outer loop
      vertex -2 2 10
      vertex -22.5 2 10
      vertex -2 -2 10
    endloop
  endfacet
  facet normal 0 0 1
    outer loop
      vertex 51 -10 10
      vertex 47 -2 10
      vertex 47 -10 10
    endloop
  endfacet
  facet normal 0 0 1
    outer loop
      vertex 51 10 10
      vertex 47 -2 10
      vertex 51 -10 10
    endloop
  endfacet
  facet normal 0 0 1
    outer loop
      vertex 51 10 10
      vertex 47 2 10
      vertex 47 -2 10
    endloop
  endfacet
  facet normal 0 0 1
    outer loop
      vertex 51 10 10
      vertex 47 10 10
      vertex 47 2 10
    endloop
  endfacet
  facet normal 0 0 1
    outer loop
      vertex 47 2 10
      vertex 26.5 2 10
      vertex 47 -2 10
    endloop
  endfacet
  facet normal 0 0 1
    outer loop
      vertex 2 2 10
      vertex -2 2 10
      vertex 26.5 -2 10
    endloop
  endfacet
  facet normal 0 0 1
    outer loop
      vertex 26.5 2 10
      vertex 22.5 2 10
      vertex 47 -2 10
    endloop
  endfacet
  facet normal 0 0 1
    outer loop
      vertex -2 10 10
      vertex -2 2 10
      vertex 2 2 10
    endloop
  endfacet
  facet normal 0 0 1
    outer loop
      vertex 47 -2 10
      vertex 2 2 10
      vertex 26.5 -2 10
    endloop
  endfacet
  facet normal 0 0 1
    outer loop
      vertex 26.5 -2 10
      vertex -2 2 10
      vertex 22.5 -2 10
    endloop
  endfacet
  facet normal 0 0 1
    outer loop
      vertex -2 -2 10
      vertex -22.5 2 10
      vertex -22.5 -2 10
    endloop
  endfacet
  facet normal 0 0 1
    outer loop
      vertex -26.5 10 10
      vertex -26.5 2 10
      vertex -22.5 2 10
    endloop
  endfacet
  facet normal 0 0 1
    outer loop
      vertex -22.5 2 10
      vertex -26.5 2 10
      vertex -22.5 -2 10
    endloop
  endfacet
  facet normal 0 0 1
    outer loop
      vertex -26.5 -2 10
      vertex -47 2 10
      vertex -47 -2 10
    endloop
  endfacet
  facet normal 0 0 1
    outer loop
      vertex 22.5 10 10
      vertex 22.5 2 10
      vertex 26.5 2 10
    endloop
  endfacet
  facet normal 0 0 1
    outer loop
      vertex 22.5 2 10
      vertex 2 2 10
      vertex 47 -2 10
    endloop
  endfacet
  facet normal 0 0 1
    outer loop
      vertex -22.5 2 10
      vertex -22.5 10 10
      vertex -26.5 10 10
    endloop
  endfacet
  facet normal 0 0 1
    outer loop
      vertex 2 2 10
      vertex 2 10 10
      vertex -2 10 10
    endloop
  endfacet
  facet normal 0 0 1
    outer loop
      vertex 26.5 2 10
      vertex 26.5 10 10
      vertex 22.5 10 10
    endloop
  endfacet
  facet normal 1 0 0
    outer loop
      vertex -47 -2 -10
      vertex -47 -2 10
      vertex -47 -10 10
    endloop
  endfacet
  facet normal 1 0 0
    outer loop
      vertex -47 -10 -10
      vertex -47 -2 -10
      vertex -47 -10 10
    endloop
  endfacet
  facet normal 0 -1 0
    outer loop
      vertex -26.5 -2 -10
      vertex -26.5 -2 10
      vertex -47 -2 10
    endloop
  endfacet
  facet normal 0 -1 0
    outer loop
      vertex -47 -2 -10
      vertex -26.5 -2 -10
      vertex -47 -2 10
    endloop
  endfacet
  facet normal -1 0 0
    outer loop
      vertex -26.5 -2 10
      vertex -26.5 -2 -10
      vertex -26.5 -10 10
    endloop
  endfacet
  facet normal -1 0 0
    outer loop
      vertex -26.5 -10 10
      vertex -26.5 -2 -10
      vertex -26.5 -10 -10
    endloop
  endfacet
  facet normal 0 -1 0
    outer loop
      vertex -26.5 -10 10
      vertex -26.5 -10 -10
      vertex -22.5 -10 -10
    endloop
  endfacet
  facet normal 0 -1 0
    outer loop
      vertex -22.5 -10 10
      vertex -26.5 -10 10
      vertex -22.5 -10 -10
    endloop
  endfacet
  facet normal 1 0 0
    outer loop
      vertex -22.5 -2 -10
      vertex -22.5 -2 10
      vertex -22.5 -10 10
    endloop
  endfacet
  facet normal 1 0 0
    outer loop
      vertex -22.5 -10 -10
      vertex -22.5 -2 -10
      vertex -22.5 -10 10
    endloop
  endfacet
  facet normal 0 -1 0
    outer loop
      vertex -2 -2 -10
      vertex -2 -2 10
      vertex -22.5 -2 10
    endloop
  endfacet
  facet normal 0 -1 0
    outer loop
      vertex -22.5 -2 -10
      vertex -2 -2 -10
      vertex -22.5 -2 10
    endloop
  endfacet
  facet normal -1 0 0
    outer loop
      vertex -2 -2 10
      vertex -2 -2 -10
      vertex -2 -10 10
    endloop
  endfacet
  facet normal -1 0 0
    outer loop
      vertex -2 -10 10
      vertex -2 -2 -10
      vertex -2 -10 -10
    endloop
  endfacet
  facet normal 0 -1 0
    outer loop
      vertex -2 -10 10
      vertex -2 -10 -10
      vertex 2 -10 -10
    endloop
  endfacet
  facet normal 0 -1 0
    outer loop
      vertex 2 -10 10
      vertex -2 -10 10
      vertex 2 -10 -10
    endloop
  endfacet
  facet normal 1 0 0
    outer loop
      vertex 2 -2 -10
      vertex 2 -2 10
      vertex 2 -10 10
    endloop
  endfacet
  facet normal 1 0 0
    outer loop
      vertex 2 -10 -10
      vertex 2 -2 -10
      vertex 2 -10 10
    endloop
  endfacet
  facet normal 0 -1 0
    outer loop
      vertex 22.5 -2 -10
      vertex 22.5 -2 10
      vertex 2 -2 10
    endloop
  endfacet
  facet normal 0 -1 0
    outer loop
      vertex 2 -2 -10
      vertex 22.5 -2 -10
      vertex 2 -2 10
    endloop
  endfacet
  facet normal -1 0 0
    outer loop
      vertex 22.5 -2 10
      vertex 22.5 -2 -10
      vertex 22.5 -10 10
    endloop
  endfacet
  facet normal -1 0 0
    outer loop
      vertex 22.5 -10 10
      vertex 22.5 -2 -10
      vertex 22.5 -10 -10
    endloop
  endfacet
  facet normal 0 -1 0
    outer loop
      vertex 22.5 -10 10
      vertex 22.5 -10 -10
      vertex 26.5 -10 -10
    endloop
  endfacet
  facet normal 0 -1 0
    outer loop
      vertex 26.5 -10 10
      vertex 22.5 -10 10
      vertex 26.5 -10 -10
    endloop
  endfacet
  facet normal 1 0 0
    outer loop
      vertex 26.5 -2 -10
      vertex 26.5 -2 10
      vertex 26.5 -10 10
    endloop
  endfacet
  facet normal 1 0 0
    outer loop
      vertex 26.5 -10 -10
      vertex 26.5 -2 -10
      vertex 26.5 -10 10
    endloop
  endfacet
  facet normal 0 -1 0
    outer loop
      vertex 47 -2 -10
      vertex 47 -2 10
      vertex 26.5 -2 10
    endloop
  endfacet
  facet normal 0 -1 0
    outer loop
      vertex 26.5 -2 -10
      vertex 47 -2 -10
      vertex 26.5 -2 10
    endloop
  endfacet
  facet normal -1 0 0
    outer loop
      vertex 47 -2 10
      vertex 47 -2 -10
      vertex 47 -10 10
    endloop
  endfacet
  facet normal -1 0 0
    outer loop
      vertex 47 -10 10
      vertex 47 -2 -10
      vertex 47 -10 -10
    endloop
  endfacet
  facet normal 0 -1 0
    outer loop
      vertex 47 -10 10
      vertex 47 -10 -10
      vertex 51 -10 -10
    endloop
  endfacet
  facet normal 0 -1 0
    outer loop
      vertex 51 -10 10
      vertex 47 -10 10
      vertex 51 -10 -10
    endloop
  endfacet
  facet normal 1 0 0
    outer loop
      vertex 51 -10 10
      vertex 51 -10 -10
      vertex 51 10 -10
    endloop
  endfacet
  facet normal 1 0 0
    outer loop
      vertex 51 10 10
      vertex 51 -10 10
      vertex 51 10 -10
    endloop
  endfacet
  facet normal 0 1 0
    outer loop
      vertex 47 10 -10
      vertex 47 10 10
      vertex 51 10 -10
    endloop
  endfacet
  facet normal 0 1 0
    outer loop
      vertex 51 10 -10
      vertex 47 10 10
      vertex 51 10 10
    endloop
  endfacet
  facet normal -1 0 0
    outer loop
      vertex 47 10 10
      vertex 47 10 -10
      vertex 47 2 10
    endloop
  endfacet
  facet normal -1 0 0
    outer loop
      vertex 47 2 10
      vertex 47 10 -10
      vertex 47 2 -10
    endloop
  endfacet
  facet normal 0 1 0
    outer loop
      vertex 47 2 10
      vertex 47 2 -10
      vertex 26.5 2 10
    endloop
  endfacet
  facet normal 0 1 0
    outer loop
      vertex 26.5 2 10
      vertex 47 2 -10
      vertex 26.5 2 -10
    endloop
  endfacet
  facet normal 1 0 0
    outer loop
      vertex 26.5 10 -10
      vertex 26.5 10 10
      vertex 26.5 2 10
    endloop
  endfacet
  facet normal 1 0 0
    outer loop
      vertex 26.5 2 -10
      vertex 26.5 10 -10
      vertex 26.5 2 10
    endloop
  endfacet
  facet normal 0 1 0
    outer loop
      vertex 22.5 10 -10
      vertex 22.5 10 10
      vertex 26.5 10 -10
    endloop
  endfacet
  facet normal 0 1 0
    outer loop
      vertex 26.5 10 -10
      vertex 22.5 10 10
      vertex 26.5 10 10
    endloop
  endfacet
  facet normal -1 0 0
    outer loop
      vertex 22.5 10 10
      vertex 22.5 10 -10
      vertex 22.5 2 10
    endloop
  endfacet
  facet normal -1 0 0
    outer loop
      vertex 22.5 2 10
      vertex 22.5 10 -10
      vertex 22.5 2 -10
    endloop
  endfacet
  facet normal 0 1 0
    outer loop
      vertex 22.5 2 10
      vertex 22.5 2 -10
      vertex 2 2 10
    endloop
  endfacet
  facet normal 0 1 0
    outer loop
      vertex 2 2 10
      vertex 22.5 2 -10
      vertex 2 2 -10
    endloop
  endfacet
  facet normal 1 0 0
    outer loop
      vertex 2 10 -10
      vertex 2 10 10
      vertex 2 2 10
    endloop
  endfacet
  facet normal 1 0 0
    outer loop
      vertex 2 2 -10
      vertex 2 10 -10
      vertex 2 2 10
    endloop
  endfacet
  facet normal 0 1 0
    outer loop
      vertex -2 10 -10
      vertex -2 10 10
      vertex 2 10 -10
    endloop
  endfacet
  facet normal 0 1 0
    outer loop
      vertex 2 10 -10
      vertex -2 10 10
      vertex 2 10 10
    endloop
  endfacet
  facet normal -1 0 0
    outer loop
      vertex -2 10 10
      vertex -2 10 -10
      vertex -2 2 10
    endloop
  endfacet
  facet normal -1 0 0
    outer loop
      vertex -2 2 10
      vertex -2 10 -10
      vertex -2 2 -10
    endloop
  endfacet
  facet normal 0 1 0
    outer loop
      vertex -2 2 10
      vertex -2 2 -10
      vertex -22.5 2 10
    endloop
  endfacet
  facet normal 0 1 0
    outer loop
      vertex -22.5 2 10
      vertex -2 2 -10
      vertex -22.5 2 -10
    endloop
  endfacet
  facet normal 1 0 0
    outer loop
      vertex -22.5 10 -10
      vertex -22.5 10 10
      vertex -22.5 2 10
    endloop
  endfacet
  facet normal 1 0 0
    outer loop
      vertex -22.5 2 -10
      vertex -22.5 10 -10
      vertex -22.5 2 10
    endloop
  endfacet
  facet normal 0 1 0
    outer loop
      vertex -26.5 10 -10
      vertex -26.5 10 10
      vertex -22.5 10 -10
    endloop
  endfacet
  facet normal 0 1 0
    outer loop
      vertex -22.5 10 -10
      vertex -26.5 10 10
      vertex -22.5 10 10
    endloop
  endfacet
  facet normal -1 0 0
    outer loop
      vertex -26.5 10 10
      vertex -26.5 10 -10
      vertex -26.5 2 10
    endloop
  endfacet
  facet normal -1 0 0
    outer loop
      vertex -26.5 2 10
      vertex -26.5 10 -10
      vertex -26.5 2 -10
    endloop
  endfacet
  facet normal 0 1 0
    outer loop
      vertex -26.5 2 10
      vertex -26.5 2 -10
      vertex -47 2 10
    endloop
  endfacet
  facet normal 0 1 0
    outer loop
      vertex -47 2 10
      vertex -26.5 2 -10
      vertex -47 2 -10
    endloop
  endfacet
  facet normal 1 0 0
    outer loop
      vertex -47 10 -10
      vertex -47 10 10
      vertex -47 2 10
    endloop
  endfacet
  facet normal 1 0 0
    outer loop
      vertex -47 2 -10
      vertex -47 10 -10
      vertex -47 2 10
    endloop
  endfacet
endsolid OpenSCAD_Model
